<svg width="301" height="116" viewBox="0 0 301 116" fill="none" xmlns="http://www.w3.org/2000/svg">
<g clip-path="url(#clip0_88_218)">
<path fill-rule="evenodd" clip-rule="evenodd" d="M43.5672 78.5806L43.2805 78.2945L43.5672 78.5806ZM54.4483 85.7396C51.719 85.7396 48.5676 82.4339 46.7841 80.5176C43.2955 76.7677 42.7077 74.2142 42.7077 69.7039C42.7077 63.9023 51.9853 55.9589 57.5979 55.9589C65.0401 55.9589 73.6336 60.4627 73.6336 69.9899C73.6336 79.178 63.926 85.7393 54.4479 85.7393L54.4483 85.7396ZM46.144 36.2008C44.8832 36.2008 40.6099 35.0785 39.3684 34.6718C34.1407 32.9581 28.9627 26.1137 28.9627 19.5926C28.9627 12.28 32.5791 5.89738 38.8933 3.17882C45.2501 0.441637 51.9091 1.24353 57.0917 5.49501C58.7338 6.84212 58.7162 6.61802 60.2953 8.87728C64.4505 14.8235 64.4985 22.6122 60.5237 28.5319C59.3449 30.2882 58.8662 30.8202 57.4031 31.9973C54.2102 34.5662 50.7084 36.2011 46.144 36.2011V36.2008ZM43.2805 78.2945C41.4633 77.0777 38.3993 72.3941 36.6237 70.6339C35.3543 69.3759 34.3637 68.2494 32.7442 67.354C30.8021 66.2801 28.5621 66.7873 27.7996 68.5411C25.9392 72.823 29.7496 81.094 31.5474 85.1593C31.9659 86.1051 33.4637 89.3506 33.5443 90.3211C29.8842 90.4028 20.0363 93.4539 27.8172 96.9074C33.7387 99.5358 40.5387 100.044 46.5249 102.539C48.167 103.224 48.9994 104.191 48.5794 106.48C47.2685 113.634 40.6407 115.429 32.6554 113.832C25.7075 112.442 20.3306 109.918 14.737 107.124C9.84686 104.681 4.86544 99.9654 3.00748 94.5139C-0.874903 83.1223 4.76342 71.6041 11.291 62.9128C13.9004 59.4385 16.7346 55.8458 20.1286 53.1379C22.3969 51.3287 23.8983 49.5648 26.7926 47.4892C30.1831 45.0578 42.334 36.8691 47.0293 37.8783C59.4104 40.5385 71.9833 44.1263 81.9436 51.6584C85.5518 54.387 88.2038 57.9353 90.2432 61.9713C94.644 70.6801 92.7832 82.7586 88.3373 91.5669C84.3629 99.442 75.309 105.001 65.6175 105.5C60.0057 105.789 53.9725 105.854 52.3881 100.399C51.6463 97.8439 52.5023 97.3957 53.0167 95.1894C59.8199 95.1894 64.5919 96.2348 70.9663 92.8081C72.7179 91.8662 73.7246 91.0948 75.2324 89.9159C79.6103 86.4925 84.5154 78.5687 84.5154 70.8494H83.3699C83.2159 77.7625 78.9129 85.3655 73.8037 89.3456C68.843 93.2098 63.6661 94.0116 57.3079 94.0478C54.9742 94.0611 52.982 93.0505 51.6904 95.0083C50.7728 96.3987 50.4517 98.7489 50.9944 100.647C52.7013 106.611 59.6714 107.73 66.0715 106.812C72.2658 105.924 76.9565 104.682 81.6136 101.164C83.6741 99.6074 85.3742 97.9596 87.0031 95.9595C95.699 85.2825 97.0665 66.8124 88.1726 56.0237C83.6784 50.5719 78.6193 47.1789 71.8215 44.0264C67.4898 42.0181 54.7605 37.3467 50.1528 37.3467C50.4539 37.1373 50.0533 37.3324 50.707 37.0413C54.9975 35.1322 57.4497 34.7344 60.7962 30.5224C63.2946 27.3778 65.1951 22.7644 64.7451 16.7401C64.3986 12.0931 61.8168 8.21286 58.8186 5.19895C57.401 3.77344 55.4951 2.53229 53.4287 1.71285C44.2259 -1.93899 34.029 1.66417 29.8194 10.141C26.5252 16.7749 26.9433 24.7942 31.4712 30.2564C33.995 33.3011 38.1362 36.7037 42.421 37.0603C42.3694 37.1051 42.2835 37.0986 42.2574 37.1827C42.15 37.53 38.2894 38.9773 37.9318 39.1567C27.7631 44.2448 18.8334 51.3168 11.6912 60.1642C1.60238 72.6634 -6.80355 93.1385 10.3849 106.035C13.0355 108.024 15.9112 109.244 19.1306 110.748C25.8826 113.904 43.3589 120.405 48.8204 110.179C49.6505 108.625 49.9967 107.045 49.8832 104.624C49.7765 102.348 48.2923 101.825 46.5167 101.116C40.7148 98.798 34.1153 97.9148 28.2142 95.6523C27.1191 95.2324 26.6702 95.111 26.3859 94.0442C27.9571 91.6976 32.7506 92.385 34.9762 90.8943C34.9762 89.312 34.3007 88.1625 33.7931 86.9235C32.1606 82.9408 30.4477 79.3631 29.359 75.0354C28.7751 72.7131 27.3353 67.1761 31.7017 68.3793C36.0273 69.5707 42.9884 83.1395 51.3431 86.5548C54.3928 87.8013 61.1695 92.8682 62.7526 90.8943C63.1582 89.7641 60.3852 89.6116 59.1082 89.0983C58.3192 88.7814 57.8542 88.5903 57.1157 88.2269L55.3071 87.1719C59.0331 87.0889 63.5459 85.4758 65.9215 84.0413C68.8112 82.2961 71.3271 80.0934 73.0533 77.1418C76.8408 70.6658 75.0899 61.8893 68.3615 57.7961C65.2674 55.9138 61.5207 54.5806 57.5943 54.5541C51.3496 54.5119 39.8356 63.312 41.3835 73.0332C41.8195 75.77 42.8348 76.3807 43.2805 78.2952V78.2945Z" fill="#13528B"/>
<path fill-rule="evenodd" clip-rule="evenodd" d="M55.0577 67.8033C55.0577 66.3685 56.3325 65.8158 57.2647 65.8158C58.0426 65.8158 58.566 66.4286 58.8742 66.9653C59.1549 67.4543 59.0085 67.4969 59.5426 67.7331C61.0443 68.3979 61.0766 67.025 62.5919 67.3286C64.6618 67.7435 64.0572 70.7718 61.8813 72.2019C60.7934 72.9172 59.1563 72.8238 57.4856 73.2132C56.9998 72.4872 56.4496 71.5844 56.0497 70.7857C55.7393 70.166 55.0581 68.67 55.0581 67.8033H55.0577ZM57.1849 74.8689H56.7889C56.5466 74.8138 56.432 74.6155 56.1954 74.1727C55.1332 72.1865 53.5133 70.4249 53.5133 67.4718C53.5133 65.6783 55.2614 64.27 57.0442 64.27C58.6404 64.27 59.307 64.7475 60.2439 66.1465C60.7844 66.1018 62.9141 64.9029 64.5236 66.6119C65.3309 67.4686 65.4272 68.1785 65.4301 69.1898V69.2381C65.4301 71.0266 63.8406 72.852 62.6961 73.5687C61.8376 74.1064 61.2158 74.2861 60.0144 74.4179C59.4219 74.4834 59.0185 74.5579 58.4779 74.6477C57.8679 74.7487 57.4673 74.8342 57.1852 74.8689H57.1849Z" fill="#1C7EB5"/>
<path d="M125.034 73.9253C122.825 73.9253 121.034 72.1344 121.034 69.9253V30.9052C121.034 28.6961 122.825 26.9052 125.034 26.9052H134.307C138.397 26.9052 142.014 27.8095 145.158 29.6179C148.301 31.4264 150.723 33.9991 152.424 37.3362C154.146 40.6733 155.018 44.5055 155.04 48.8327V51.8363C155.04 56.2713 154.178 60.1572 152.456 63.4943C150.755 66.8313 148.312 69.3935 145.125 71.1805C141.961 72.9671 138.268 73.8824 134.049 73.9253H125.034ZM131.235 32.0077C129.025 32.0077 127.235 33.7985 127.235 36.0077V64.8552C127.235 67.0644 129.025 68.8552 131.235 68.8552H133.758C138.537 68.8552 142.251 67.3695 144.899 64.3985C147.569 61.4274 148.904 57.1969 148.904 51.7069V48.9621C148.904 43.6228 147.644 39.4784 145.125 36.5288C142.628 33.5578 139.076 32.0507 134.468 32.0077H131.235ZM169.992 70.938C169.992 72.5878 168.654 73.9253 167.005 73.9253V73.9253C165.355 73.9253 164.017 72.5878 164.017 70.938V41.9705C164.017 40.3207 165.355 38.9832 167.005 38.9832V38.9832C168.654 38.9832 169.992 40.3207 169.992 41.9705V70.938ZM163.533 29.7148C163.533 28.746 163.824 27.9279 164.405 27.2605C165.008 26.5931 165.89 26.2594 167.053 26.2594C168.216 26.2594 169.098 26.5931 169.701 27.2605C170.304 27.9279 170.605 28.746 170.605 29.7148C170.605 30.6836 170.304 31.491 169.701 32.1369C169.098 32.7827 168.216 33.1057 167.053 33.1057C165.89 33.1057 165.008 32.7827 164.405 32.1369C163.824 31.491 163.533 30.6836 163.533 29.7148ZM196.473 41.3931C196.473 42.9378 195.079 44.1179 193.534 44.1179V44.1179C189.913 44.1179 187.367 45.5432 185.897 48.3938C185.654 48.8658 185.558 49.3972 185.558 49.9283V70.938C185.558 72.5878 184.22 73.9253 182.57 73.9253V73.9253C180.92 73.9253 179.583 72.5878 179.583 70.938V41.9246C179.583 40.3001 180.9 38.9832 182.524 38.9832H184.479C184.989 38.9832 185.406 39.39 185.418 39.8997V39.8997C185.44 40.8302 186.787 41.2466 187.482 40.6275C189.196 39.1007 191.31 38.3373 193.825 38.3373C194.108 38.3373 194.374 38.3462 194.624 38.3641C195.791 38.4475 196.473 39.5284 196.473 40.6983V41.3931ZM215.849 74.5711C211.113 74.5711 207.259 73.0211 204.288 69.921C201.317 66.7991 199.831 62.6333 199.831 57.4231V56.3252C199.831 52.8588 200.488 49.7695 201.801 47.0567C203.136 44.3225 204.988 42.1911 207.356 40.6625C209.746 39.1124 212.329 38.3373 215.107 38.3373C219.649 38.3373 223.18 39.8336 225.699 42.8262C228.218 45.8188 229.477 50.1029 229.477 55.679V55.679C229.477 57.0525 228.364 58.1658 226.99 58.1658H209.907C207.659 58.1658 205.768 60.0563 206.414 62.2098C206.911 63.8663 207.709 65.3063 208.809 66.53C210.747 68.6397 213.201 69.6948 216.172 69.6948C218.282 69.6948 220.069 69.2641 221.533 68.4031C222.325 67.9372 223.063 67.3894 223.748 66.7598C224.729 65.8581 226.23 65.6452 227.281 66.4637V66.4637C228.267 67.2316 228.518 68.6438 227.7 69.5895C224.831 72.9106 220.88 74.5711 215.849 74.5711ZM215.107 43.246C212.695 43.246 210.671 44.1287 209.035 45.8941C208.251 46.7301 207.61 47.7294 207.112 48.892C206.168 51.1003 208.117 53.2573 210.519 53.2573H223.05C223.3 53.2573 223.503 53.0547 223.503 52.8049V52.8049C223.331 49.7695 222.513 47.4228 221.049 45.7649C219.584 44.0857 217.604 43.246 215.107 43.246ZM250.436 69.6948C252.568 69.6948 254.43 69.049 256.023 67.7573C256.87 67.0706 257.516 66.2926 257.961 65.4235C258.639 64.1011 259.81 62.9131 261.296 62.9131V62.9131C262.94 62.9131 264.279 64.3218 263.717 65.867C263.372 66.8115 262.885 67.7322 262.256 68.629C260.985 70.4374 259.285 71.8799 257.153 72.9564C255.043 74.0329 252.804 74.5711 250.436 74.5711C245.678 74.5711 241.889 72.9889 239.069 69.8238C236.27 66.6376 234.87 62.2888 234.87 56.7773V55.7759C234.87 52.3745 235.495 49.3495 236.743 46.7015C237.992 44.0533 239.779 41.9973 242.104 40.5333C244.451 39.0693 247.217 38.3373 250.404 38.3373C254.322 38.3373 257.573 39.5107 260.157 41.8574C262.037 43.5515 263.284 45.6104 263.897 48.0339C264.297 49.617 262.957 50.9964 261.325 50.9964V50.9964C259.828 50.9964 258.645 49.81 258.108 48.4126C257.673 47.2808 257 46.2906 256.088 45.442C254.559 43.978 252.664 43.246 250.404 43.246C247.368 43.246 245.011 44.344 243.331 46.54C241.674 48.7144 240.845 51.8685 240.845 56.0021V57.1326C240.845 61.1583 241.674 64.2587 243.331 66.4332C244.989 68.6076 247.357 69.6948 250.436 69.6948ZM276.158 30.5221C277.808 30.5221 279.145 31.8596 279.145 33.5095V35.7216C279.145 37.5229 280.606 38.9832 282.407 38.9832H283.36C284.635 38.9832 285.669 40.017 285.669 41.2922V41.2922C285.669 42.5675 284.635 43.6012 283.36 43.6012H282.407C280.606 43.6012 279.145 45.0615 279.145 46.8629V65.2705C279.145 66.6698 279.436 67.7248 280.018 68.4353C280.599 69.1244 281.589 69.4689 282.988 69.4689V69.4689C284.467 69.4689 285.83 70.4755 285.83 71.9542V72.0776C285.83 73.1688 285.103 74.1434 284.028 74.328C283.084 74.4901 282.156 74.5711 281.244 74.5711C278.575 74.5711 276.562 73.7637 275.206 72.149C273.849 70.5343 273.171 68.2416 273.171 65.2705V46.7821C273.171 45.0253 271.747 43.6012 269.99 43.6012H269.118C267.843 43.6012 266.809 42.5675 266.809 41.2922V41.2922C266.809 40.017 267.843 38.9832 269.118 38.9832H269.99C271.747 38.9832 273.171 37.5591 273.171 35.8024V33.5095C273.171 31.8596 274.508 30.5221 276.158 30.5221V30.5221Z" fill="#13528B"/>
<path d="M117.727 90.1415V84.4375H119.337C119.833 84.4375 120.272 84.5472 120.653 84.7666C121.035 84.9861 121.329 85.2981 121.535 85.703C121.744 86.1076 121.85 86.5726 121.852 87.0976V87.4618C121.852 88 121.748 88.4714 121.539 88.8763C121.332 89.2809 121.036 89.5918 120.649 89.8084C120.266 90.0254 119.818 90.1362 119.306 90.1415H117.727ZM118.479 85.0565V89.5264H119.27C119.85 89.5264 120.301 89.3463 120.622 88.9857C120.946 88.6254 121.108 88.1122 121.108 87.4464V87.1133C121.108 86.4657 120.955 85.9628 120.649 85.6051C120.347 85.2445 119.916 85.0618 119.357 85.0565H118.479ZM123.799 90.1415H123.047V84.4375H123.799V90.1415ZM127.27 87.8342H125.93V90.1415H125.174V84.4375H127.063C127.705 84.4375 128.199 84.5836 128.543 84.8763C128.891 85.1687 129.064 85.5947 129.064 86.1533C129.064 86.5086 128.968 86.8181 128.775 87.0818C128.584 87.3456 128.318 87.5429 127.975 87.6733L129.315 90.0947V90.1415H128.508L127.27 87.8342ZM125.93 87.2191H127.086C127.46 87.2191 127.756 87.1222 127.975 86.9292C128.197 86.7359 128.308 86.4775 128.308 86.1533C128.308 85.8009 128.203 85.5304 127.991 85.3424C127.782 85.1544 127.479 85.059 127.082 85.0565H125.93V87.2191ZM133.346 87.505H130.874V89.5264H133.746V90.1415H130.122V84.4375H133.707V85.0565H130.874V86.8899H133.346V87.505ZM138.878 88.3317C138.808 88.9349 138.584 89.401 138.208 89.7302C137.835 90.0568 137.337 90.2198 136.716 90.2198C136.042 90.2198 135.501 89.9782 135.094 89.495C134.689 89.0121 134.486 88.3656 134.486 87.5561V87.0075C134.486 86.4775 134.58 86.0111 134.769 85.609C134.959 85.2066 135.228 84.8985 135.576 84.6844C135.923 84.4675 136.325 84.3592 136.782 84.3592C137.388 84.3592 137.874 84.5289 138.239 84.8685C138.605 85.2055 138.818 85.673 138.878 86.2709H138.122C138.057 85.8167 137.914 85.4875 137.695 85.2838C137.478 85.0801 137.174 84.9782 136.782 84.9782C136.302 84.9782 135.924 85.1558 135.65 85.5111C135.378 85.8663 135.243 86.3717 135.243 87.0272V87.5793C135.243 88.1984 135.372 88.6908 135.63 89.0565C135.889 89.4221 136.251 89.6047 136.716 89.6047C137.133 89.6047 137.453 89.5107 137.675 89.3227C137.9 89.1322 138.049 88.8016 138.122 88.3317H138.878ZM143.732 85.0565H141.899V90.1415H141.15V85.0565H139.321V84.4375H143.732V85.0565ZM147.219 90.1415H146.466V84.4375H147.219V90.1415ZM149.569 84.4375L151.434 89.0915L153.299 84.4375H154.274V90.1415H153.522V87.9203L153.593 85.5229L151.72 90.1415H151.144L149.275 85.5343L149.35 87.9203V90.1415H148.598V84.4375H149.569ZM156.355 87.9085V90.1415H155.602V84.4375H157.706C158.33 84.4375 158.819 84.5969 159.171 84.9157C159.527 85.2341 159.704 85.6558 159.704 86.1808C159.704 86.7345 159.53 87.1615 159.183 87.4618C158.838 87.7598 158.343 87.9085 157.698 87.9085H156.355ZM156.355 87.2934H157.706C158.108 87.2934 158.416 87.1994 158.631 87.0114C158.845 86.8206 158.952 86.5465 158.952 86.1887C158.952 85.8492 158.845 85.5776 158.631 85.3738C158.416 85.1701 158.123 85.0643 157.749 85.0565H156.355V87.2934ZM163.273 88.653H160.883L160.346 90.1415H159.571L161.749 84.4375H162.407L164.589 90.1415H163.817L163.273 88.653ZM161.111 88.0339H163.05L162.078 85.366L161.111 88.0339ZM169.506 88.3317C169.435 88.9349 169.212 89.401 168.836 89.7302C168.463 90.0568 167.965 90.2198 167.343 90.2198C166.67 90.2198 166.129 89.9782 165.721 89.495C165.317 89.0121 165.114 88.3656 165.114 87.5561V87.0075C165.114 86.4775 165.208 86.0111 165.396 85.609C165.587 85.2066 165.856 84.8985 166.203 84.6844C166.55 84.4675 166.953 84.3592 167.41 84.3592C168.016 84.3592 168.502 84.5289 168.867 84.8685C169.233 85.2055 169.446 85.673 169.506 86.2709H168.75C168.685 85.8167 168.542 85.4875 168.323 85.2838C168.106 85.0801 167.802 84.9782 167.41 84.9782C166.929 84.9782 166.552 85.1558 166.278 85.5111C166.006 85.8663 165.87 86.3717 165.87 87.0272V87.5793C165.87 88.1984 166 88.6908 166.258 89.0565C166.517 89.4221 166.879 89.6047 167.343 89.6047C167.761 89.6047 168.081 89.5107 168.303 89.3227C168.528 89.1322 168.677 88.8016 168.75 88.3317H169.506ZM174.36 85.0565H172.526V90.1415H171.778V85.0565H169.949V84.4375H174.36V85.0565ZM177.846 90.1415H177.094V84.4375H177.846V90.1415ZM183.609 90.1415H182.853L179.982 85.7459V90.1415H179.225V84.4375H179.982L182.861 88.8528V84.4375H183.609V90.1415ZM189.329 90.1415H188.573L185.701 85.7459V90.1415H184.945V84.4375H185.701L188.581 88.8528V84.4375H189.329V90.1415ZM195.053 87.4736C195.053 88.0325 194.959 88.5211 194.77 88.9389C194.582 89.3542 194.316 89.6715 193.971 89.891C193.627 90.1101 193.224 90.2198 192.765 90.2198C192.315 90.2198 191.917 90.1101 191.57 89.891C191.222 89.6687 190.952 89.3542 190.759 88.9467C190.568 88.5368 190.47 88.0625 190.465 87.5247V87.1133C190.465 86.5647 190.56 86.0804 190.751 85.6598C190.941 85.2395 191.211 84.9182 191.558 84.6962C191.908 84.4714 192.307 84.3592 192.757 84.3592C193.214 84.3592 193.616 84.4703 193.963 84.6923C194.314 84.9117 194.582 85.2316 194.77 85.6519C194.959 86.07 195.053 86.5568 195.053 87.1133V87.4736ZM194.304 87.1054C194.304 86.4289 194.168 85.9106 193.897 85.55C193.625 85.1873 193.245 85.0057 192.757 85.0057C192.281 85.0057 191.907 85.1873 191.632 85.55C191.361 85.9106 191.221 86.4121 191.213 87.0543V87.4736C191.213 88.1294 191.35 88.6451 191.624 89.0211C191.901 89.3946 192.281 89.5815 192.765 89.5815C193.25 89.5815 193.627 89.4049 193.893 89.0525C194.159 88.6973 194.296 88.1894 194.304 87.5286V87.1054ZM197.983 89.1426L199.613 84.4375H200.435L198.32 90.1415H197.654L195.542 84.4375H196.361L197.983 89.1426ZM204.055 88.653H201.665L201.129 90.1415H200.353L202.531 84.4375H203.189L205.371 90.1415H204.6L204.055 88.653ZM201.893 88.0339H203.832L202.86 85.366L201.893 88.0339ZM209.571 85.0565H207.738V90.1415H206.989V85.0565H205.16V84.4375H209.571V85.0565ZM211.224 90.1415H210.472V84.4375H211.224V90.1415ZM216.991 87.4736C216.991 88.0325 216.897 88.5211 216.709 88.9389C216.521 89.3542 216.255 89.6715 215.91 89.891C215.565 90.1101 215.163 90.2198 214.703 90.2198C214.254 90.2198 213.856 90.1101 213.508 89.891C213.161 89.6687 212.891 89.3542 212.697 88.9467C212.507 88.5368 212.409 88.0625 212.404 87.5247V87.1133C212.404 86.5647 212.499 86.0804 212.69 85.6598C212.88 85.2395 213.149 84.9182 213.497 84.6962C213.846 84.4714 214.246 84.3592 214.695 84.3592C215.152 84.3592 215.554 84.4703 215.902 84.6923C216.252 84.9117 216.521 85.2316 216.709 85.6519C216.897 86.07 216.991 86.5568 216.991 87.1133V87.4736ZM216.243 87.1054C216.243 86.4289 216.107 85.9106 215.835 85.55C215.564 85.1873 215.184 85.0057 214.695 85.0057C214.22 85.0057 213.845 85.1873 213.571 85.55C213.299 85.9106 213.159 86.4121 213.152 87.0543V87.4736C213.152 88.1294 213.289 88.6451 213.563 89.0211C213.84 89.3946 214.22 89.5815 214.703 89.5815C215.189 89.5815 215.565 89.4049 215.831 89.0525C216.098 88.6973 216.235 88.1894 216.243 87.5286V87.1054ZM222.503 90.1415H221.747L218.875 85.7459V90.1415H218.119V84.4375H218.875L221.755 88.8528V84.4375H222.503V90.1415ZM228.975 87.6226H226.581V90.1415H225.829V84.4375H229.363V85.0565H226.581V87.0075H228.975V87.6226ZM234.652 87.4736C234.652 88.0325 234.558 88.5211 234.37 88.9389C234.181 89.3542 233.915 89.6715 233.57 89.891C233.226 90.1101 232.823 90.2198 232.364 90.2198C231.914 90.2198 231.516 90.1101 231.169 89.891C230.821 89.6687 230.551 89.3542 230.358 88.9467C230.167 88.5368 230.069 88.0625 230.064 87.5247V87.1133C230.064 86.5647 230.159 86.0804 230.35 85.6598C230.541 85.2395 230.81 84.9182 231.157 84.6962C231.507 84.4714 231.906 84.3592 232.356 84.3592C232.813 84.3592 233.215 84.4703 233.563 84.6923C233.913 84.9117 234.181 85.2316 234.37 85.6519C234.558 86.07 234.652 86.5568 234.652 87.1133V87.4736ZM233.903 87.1054C233.903 86.4289 233.767 85.9106 233.496 85.55C233.224 85.1873 232.844 85.0057 232.356 85.0057C231.88 85.0057 231.506 85.1873 231.231 85.55C230.96 85.9106 230.82 86.4121 230.812 87.0543V87.4736C230.812 88.1294 230.949 88.6451 231.224 89.0211C231.5 89.3946 231.88 89.5815 232.364 89.5815C232.85 89.5815 233.226 89.4049 233.492 89.0525C233.758 88.6973 233.895 88.1894 233.903 87.5286V87.1054ZM237.872 87.8342H236.532V90.1415H235.776V84.4375H237.664C238.307 84.4375 238.8 84.5836 239.145 84.8763C239.492 85.1687 239.666 85.5947 239.666 86.1533C239.666 86.5086 239.569 86.8181 239.376 87.0818C239.186 87.3456 238.919 87.5429 238.577 87.6733L239.917 90.0947V90.1415H239.11L237.872 87.8342ZM236.532 87.2191H237.688C238.061 87.2191 238.357 87.1222 238.577 86.9292C238.799 86.7359 238.91 86.4775 238.91 86.1533C238.91 85.8009 238.804 85.5304 238.593 85.3424C238.384 85.1544 238.081 85.059 237.684 85.0565H236.532V87.2191ZM244.806 87.8342H243.466V90.1415H242.71V84.4375H244.598C245.241 84.4375 245.735 84.5836 246.079 84.8763C246.426 85.1687 246.6 85.5947 246.6 86.1533C246.6 86.5086 246.504 86.8181 246.31 87.0818C246.12 87.3456 245.853 87.5429 245.511 87.6733L246.851 90.0947V90.1415H246.044L244.806 87.8342ZM243.466 87.2191H244.622C244.995 87.2191 245.292 87.1222 245.511 86.9292C245.733 86.7359 245.844 86.4775 245.844 86.1533C245.844 85.8009 245.738 85.5304 245.527 85.3424C245.318 85.1544 245.015 85.059 244.618 85.0565H243.466V87.2191ZM250.882 87.505H248.41V89.5264H251.282V90.1415H247.658V84.4375H251.242V85.0565H248.41V86.8899H250.882V87.505ZM252.218 90.1415V84.4375H253.828C254.324 84.4375 254.763 84.5472 255.144 84.7666C255.526 84.9861 255.82 85.2981 256.026 85.703C256.235 86.1076 256.341 86.5726 256.343 87.0976V87.4618C256.343 88 256.239 88.4714 256.03 88.8763C255.824 89.2809 255.527 89.5918 255.141 89.8084C254.757 90.0254 254.309 90.1362 253.797 90.1415H252.218ZM252.97 85.0565V89.5264H253.762C254.341 89.5264 254.792 89.3463 255.113 88.9857C255.437 88.6254 255.599 88.1122 255.599 87.4464V87.1133C255.599 86.4657 255.446 85.9628 255.141 85.6051C254.837 85.2445 254.407 85.0618 253.848 85.0565H252.97ZM261.499 84.4375V88.3159C261.496 88.8538 261.326 89.2941 260.99 89.6362C260.655 89.9782 260.201 90.1701 259.626 90.2119L259.426 90.2198C258.802 90.2198 258.305 90.0515 257.934 89.7144C257.563 89.3778 257.375 88.9142 257.37 88.3238V84.4375H258.114V88.3002C258.114 88.713 258.228 89.0343 258.455 89.2641C258.682 89.4911 259.006 89.6047 259.426 89.6047C259.852 89.6047 260.177 89.4911 260.402 89.2641C260.629 89.0368 260.743 88.7169 260.743 88.3041V84.4375H261.499ZM266.882 88.3317C266.811 88.9349 266.588 89.401 266.212 89.7302C265.838 90.0568 265.341 90.2198 264.719 90.2198C264.045 90.2198 263.505 89.9782 263.097 89.495C262.692 89.0121 262.49 88.3656 262.49 87.5561V87.0075C262.49 86.4775 262.584 86.0111 262.772 85.609C262.963 85.2066 263.232 84.8985 263.579 84.6844C263.926 84.4675 264.329 84.3592 264.786 84.3592C265.392 84.3592 265.877 84.5289 266.243 84.8685C266.609 85.2055 266.821 85.673 266.882 86.2709H266.126C266.06 85.8167 265.918 85.4875 265.698 85.2838C265.482 85.0801 265.177 84.9782 264.786 84.9782C264.305 84.9782 263.928 85.1558 263.653 85.5111C263.382 85.8663 263.246 86.3717 263.246 87.0272V87.5793C263.246 88.1984 263.375 88.6908 263.634 89.0565C263.893 89.4221 264.254 89.6047 264.719 89.6047C265.137 89.6047 265.457 89.5107 265.679 89.3227C265.904 89.1322 266.052 88.8016 266.126 88.3317H266.882ZM271.736 85.0565H269.902V90.1415H269.154V85.0565H267.324V84.4375H271.736V85.0565ZM273.389 90.1415H272.637V84.4375H273.389V90.1415ZM279.156 87.4736C279.156 88.0325 279.062 88.5211 278.873 88.9389C278.685 89.3542 278.419 89.6715 278.074 89.891C277.73 90.1101 277.327 90.2198 276.867 90.2198C276.418 90.2198 276.02 90.1101 275.673 89.891C275.325 89.6687 275.055 89.3542 274.862 88.9467C274.671 88.5368 274.573 88.0625 274.568 87.5247V87.1133C274.568 86.5647 274.663 86.0804 274.854 85.6598C275.045 85.2395 275.314 84.9182 275.661 84.6962C276.011 84.4714 276.41 84.3592 276.86 84.3592C277.317 84.3592 277.719 84.4703 278.066 84.6923C278.416 84.9117 278.685 85.2316 278.873 85.6519C279.062 86.07 279.156 86.5568 279.156 87.1133V87.4736ZM278.407 87.1054C278.407 86.4289 278.271 85.9106 278 85.55C277.728 85.1873 277.348 85.0057 276.86 85.0057C276.384 85.0057 276.01 85.1873 275.735 85.55C275.464 85.9106 275.324 86.4121 275.316 87.0543V87.4736C275.316 88.1294 275.453 88.6451 275.727 89.0211C276.004 89.3946 276.384 89.5815 276.867 89.5815C277.353 89.5815 277.73 89.4049 277.996 89.0525C278.262 88.6973 278.399 88.1894 278.407 87.5286V87.1054ZM284.667 90.1415H283.911L281.04 85.7459V90.1415H280.284V84.4375H281.04L283.919 88.8528V84.4375H284.667V90.1415Z" fill="#0B7DB4"/>
<path d="M122.115 95.9632C122.115 96.5218 122.021 97.0103 121.833 97.4281C121.645 97.8434 121.378 98.1608 121.033 98.3803C120.689 98.5997 120.286 98.7094 119.827 98.7094C119.378 98.7094 118.979 98.5997 118.632 98.3803C118.285 98.1583 118.014 97.8434 117.821 97.436C117.63 97.0261 117.532 96.5518 117.527 96.0139V95.6026C117.527 95.0543 117.622 94.5697 117.813 94.149C118.004 93.7287 118.273 93.4074 118.62 93.1855C118.97 92.9607 119.37 92.8484 119.819 92.8484C120.276 92.8484 120.678 92.9596 121.026 93.1815C121.376 93.401 121.645 93.7209 121.833 94.1412C122.021 94.5593 122.115 95.0464 122.115 95.6026V95.9632ZM121.366 95.5947C121.366 94.9185 121.231 94.3999 120.959 94.0393C120.687 93.6765 120.307 93.495 119.819 93.495C119.344 93.495 118.969 93.6765 118.695 94.0393C118.423 94.3999 118.283 94.9013 118.275 95.5439V95.9632C118.275 96.6186 118.413 97.1344 118.687 97.5103C118.964 97.8838 119.344 98.0707 119.827 98.0707C120.313 98.0707 120.689 97.8945 120.955 97.5418C121.221 97.1865 121.359 96.6787 121.366 96.0178V95.5947ZM126.389 96.1118H123.995V98.6308H123.243V92.9267H126.777V93.5457H123.995V95.4968H126.389V96.1118ZM130.639 92.9267L132.504 97.5811L134.369 92.9267H135.344V98.6308H134.592V96.4096L134.663 94.0121L132.79 98.6308H132.214L130.345 94.0239L130.42 96.4096V98.6308H129.668V92.9267H130.639ZM139.893 97.1422H137.503L136.966 98.6308H136.191L138.369 92.9267H139.027L141.209 98.6308H140.437L139.893 97.1422ZM137.73 96.5232H139.669L138.698 93.8552L137.73 96.5232ZM145.409 93.5457H143.575V98.6308H142.827V93.5457H140.997V92.9267H145.409V93.5457ZM149.479 95.9943H147.007V98.0157H149.879V98.6308H146.255V92.9267H149.839V93.5457H147.007V95.3792H149.479V95.9943ZM152.907 96.3234H151.567V98.6308H150.811V92.9267H152.699C153.342 92.9267 153.835 93.0732 154.18 93.3656C154.528 93.6583 154.701 94.084 154.701 94.6429C154.701 94.9978 154.604 95.3073 154.411 95.5711C154.221 95.8349 153.954 96.0321 153.612 96.1629L154.952 98.584V98.6308H154.145L152.907 96.3234ZM151.567 95.7083H152.723C153.096 95.7083 153.393 95.6118 153.612 95.4185C153.834 95.2251 153.945 94.9667 153.945 94.6429C153.945 94.2902 153.839 94.02 153.628 93.832C153.419 93.6437 153.116 93.5486 152.719 93.5457H151.567V95.7083ZM160.143 98.6308H159.387L156.515 94.2355V98.6308H155.759V92.9267H156.515L159.395 97.342V92.9267H160.143V98.6308ZM164.699 97.1422H162.309L161.772 98.6308H160.997L163.175 92.9267H163.833L166.015 98.6308H165.243L164.699 97.1422ZM162.537 96.5232H164.476L163.504 93.8552L162.537 96.5232ZM167.539 98.0157H170.242V98.6308H166.783V92.9267H167.539V98.0157ZM176.24 97.1422H173.85L173.314 98.6308H172.538L174.716 92.9267H175.374L177.557 98.6308H176.785L176.24 97.1422ZM174.078 96.5232H176.017L175.045 93.8552L174.078 96.5232ZM182.708 98.6308H181.952L179.08 94.2355V98.6308H178.324V92.9267H179.08L181.96 97.342V92.9267H182.708V98.6308ZM184.044 98.6308V92.9267H185.654C186.151 92.9267 186.589 93.0364 186.97 93.2559C187.352 93.4753 187.646 93.7873 187.852 94.1923C188.061 94.5972 188.167 95.0618 188.169 95.5868V95.9514C188.169 96.4893 188.065 96.9607 187.856 97.3656C187.649 97.7702 187.353 98.0811 186.966 98.298C186.583 98.5146 186.135 98.6258 185.623 98.6308H184.044ZM184.796 93.5457V98.0157H185.588C186.167 98.0157 186.618 97.8356 186.939 97.4753C187.263 97.1147 187.425 96.6015 187.425 95.9356V95.6026C187.425 94.9549 187.272 94.4521 186.966 94.0943C186.663 93.7341 186.233 93.5511 185.674 93.5457H184.796ZM195.495 96.8209C195.425 97.4242 195.201 97.8906 194.825 98.2194C194.452 98.5461 193.954 98.7094 193.333 98.7094C192.659 98.7094 192.118 98.4678 191.711 97.9846C191.306 97.5014 191.103 96.8549 191.103 96.0454V95.4968C191.103 94.9667 191.198 94.5003 191.386 94.0983C191.576 93.6962 191.845 93.3878 192.193 93.1737C192.54 92.9567 192.942 92.8484 193.399 92.8484C194.005 92.8484 194.491 93.0182 194.857 93.3577C195.222 93.6948 195.435 94.1622 195.495 94.7602H194.739C194.674 94.3059 194.532 93.9767 194.312 93.773C194.095 93.5693 193.791 93.4675 193.399 93.4675C192.919 93.4675 192.541 93.6451 192.267 94.0003C191.995 94.3556 191.86 94.861 191.86 95.5164V96.069C191.86 96.6876 191.989 97.1801 192.247 97.5457C192.506 97.9113 192.868 98.0943 193.333 98.0943C193.751 98.0943 194.07 98.0003 194.292 97.812C194.517 97.6215 194.666 97.2909 194.739 96.8209H195.495ZM200.909 98.6308H200.153V95.9943H197.278V98.6308H196.525V92.9267H197.278V95.3792H200.153V92.9267H200.909V98.6308ZM203.052 98.6308H202.3V92.9267H203.052V98.6308ZM205.187 98.0157H207.89V98.6308H204.431V92.9267H205.187V98.0157ZM208.748 98.6308V92.9267H210.359C210.855 92.9267 211.294 93.0364 211.675 93.2559C212.056 93.4753 212.35 93.7873 212.556 94.1923C212.765 94.5972 212.871 95.0618 212.874 95.5868V95.9514C212.874 96.4893 212.769 96.9607 212.56 97.3656C212.354 97.7702 212.058 98.0811 211.671 98.298C211.287 98.5146 210.839 98.6258 210.327 98.6308H208.748ZM209.5 93.5457V98.0157H210.292C210.872 98.0157 211.322 97.8356 211.643 97.4753C211.967 97.1147 212.129 96.6015 212.129 95.9356V95.6026C212.129 94.9549 211.977 94.4521 211.671 94.0943C211.368 93.7341 210.937 93.5511 210.378 93.5457H209.5ZM216.975 92.9267L218.84 97.5811L220.705 92.9267H221.68V98.6308H220.928V96.4096L220.999 94.0121L219.126 98.6308H218.55L216.682 94.0239L216.756 96.4096V98.6308H216.004V92.9267H216.975ZM227.396 95.9632C227.396 96.5218 227.302 97.0103 227.114 97.4281C226.926 97.8434 226.659 98.1608 226.315 98.3803C225.97 98.5997 225.568 98.7094 225.108 98.7094C224.659 98.7094 224.261 98.5997 223.913 98.3803C223.566 98.1583 223.296 97.8434 223.102 97.436C222.912 97.0261 222.814 96.5518 222.809 96.0139V95.6026C222.809 95.0543 222.904 94.5697 223.095 94.149C223.285 93.7287 223.554 93.4074 223.902 93.1855C224.252 92.9607 224.651 92.8484 225.101 92.8484C225.558 92.8484 225.96 92.9596 226.307 93.1815C226.657 93.401 226.926 93.7209 227.114 94.1412C227.302 94.5593 227.396 95.0464 227.396 95.6026V95.9632ZM226.648 95.5947C226.648 94.9185 226.512 94.3999 226.241 94.0393C225.969 93.6765 225.589 93.495 225.101 93.495C224.625 93.495 224.25 93.6765 223.976 94.0393C223.705 94.3999 223.565 94.9013 223.557 95.5439V95.9632C223.557 96.6186 223.694 97.1344 223.968 97.5103C224.245 97.8838 224.625 98.0707 225.108 98.0707C225.594 98.0707 225.97 97.8945 226.237 97.5418C226.503 97.1865 226.64 96.6787 226.648 96.0178V95.5947ZM230.617 96.3234H229.277V98.6308H228.52V92.9267H230.409C231.051 92.9267 231.545 93.0732 231.89 93.3656C232.237 93.6583 232.411 94.084 232.411 94.6429C232.411 94.9978 232.314 95.3073 232.121 95.5711C231.93 95.8349 231.664 96.0321 231.322 96.1629L232.661 98.584V98.6308H231.854L230.617 96.3234ZM229.277 95.7083H230.432C230.806 95.7083 231.102 95.6118 231.322 95.4185C231.544 95.2251 231.654 94.9667 231.654 94.6429C231.654 94.2902 231.549 94.02 231.337 93.832C231.128 93.6437 230.825 93.5486 230.428 93.5457H229.277V95.7083ZM237.096 93.5457H235.263V98.6308H234.514V93.5457H232.685V92.9267H237.096V93.5457ZM240.779 97.1422H238.389L237.852 98.6308H237.077L239.255 92.9267H239.913L242.095 98.6308H241.323L240.779 97.1422ZM238.616 96.5232H240.555L239.584 93.8552L238.616 96.5232ZM243.619 98.0157H246.322V98.6308H242.863V92.9267H243.619V98.0157ZM247.987 98.6308H247.235V92.9267H247.987V98.6308ZM253.19 93.5457H251.356V98.6308H250.608V93.5457H248.779V92.9267H253.19V93.5457ZM255.838 95.7905L257.327 92.9267H258.181L256.214 96.5036V98.6308H255.462V96.5036L253.495 92.9267H254.357L255.838 95.7905Z" fill="#0B7DB4"/>
</g>
<defs>
<clipPath id="clip0_88_218">
<rect width="300" height="115.413" fill="white" transform="translate(0.5 0.293518)"/>
</clipPath>
</defs>
</svg>
