<svg width="187" height="187" viewBox="0 0 187 187" fill="none" xmlns="http://www.w3.org/2000/svg">
<path d="M35.1714 84.8375C35.1714 84.8375 61.0648 83.8006 66.6604 41.2374C71.6295 3.43708 115.293 20.6424 127.914 35.7105C144.264 55.2299 135.548 88.8074 156.699 93.0493C177.849 97.2911 164.038 144.453 131.932 139.938C91.9943 134.323 101.657 157.661 89.6679 167.538C81.0635 174.628 45.7825 167.803 44.6067 142.068C43.6172 120.413 34.4824 120.482 28.0076 118.026C18.6695 114.485 12.7854 88.8365 35.1714 84.8375Z" fill="#F1F5F8"/>
<path d="M123.194 132.107L97.755 106.969L92.7176 112.067L118.157 137.205L123.194 132.107Z" fill="#B8CBDC"/>
<path d="M132.912 138.861L113.12 119.304C113.01 119.195 112.833 119.196 112.724 119.306L105.233 126.888C105.124 126.998 105.125 127.175 105.235 127.284L125.027 146.841C125.137 146.95 125.315 146.949 125.424 146.839L132.915 139.258C133.024 139.148 133.023 138.97 132.912 138.861Z" fill="#87A7C4"/>
<path d="M75.2079 119.611C92.7095 119.611 106.897 105.424 106.897 87.9219C106.897 70.4203 92.7095 56.2324 75.2079 56.2324C57.7062 56.2324 43.5184 70.4203 43.5184 87.9219C43.5184 105.424 57.7062 119.611 75.2079 119.611Z" fill="#87A7C4"/>
<path d="M75.2078 114.441C89.8537 114.441 101.727 102.568 101.727 87.9221C101.727 73.2762 89.8537 61.4033 75.2078 61.4033C60.5619 61.4033 48.6891 73.2762 48.6891 87.9221C48.6891 102.568 60.5619 114.441 75.2078 114.441Z" fill="#EAF2FF"/>
<path d="M128.783 59.2743C121.349 56.8649 113.316 60.9399 110.897 68.4037C108.488 75.837 112.563 83.87 120.027 86.2892C127.491 88.7083 135.503 84.5933 137.912 77.1597C140.322 69.7261 136.216 61.6836 128.783 59.2743ZM126.54 66.1942C127.372 66.4639 128.105 66.9747 128.646 67.6616C129.188 68.3486 129.513 69.1809 129.58 70.0529C129.648 70.9249 129.455 71.7974 129.026 72.5597C128.597 73.3219 127.952 73.9397 127.171 74.3345C126.391 74.7293 125.511 74.8834 124.643 74.7773C123.774 74.6713 122.957 74.3097 122.295 73.7386C121.632 73.1674 121.155 72.4124 120.922 71.5693C120.689 70.7262 120.712 69.8329 120.988 69.0029C121.732 66.7063 124.243 65.4499 126.54 66.1942ZM120.928 83.5091C118.458 82.7127 116.342 81.0826 114.942 78.8978C117.562 77.4094 120.301 76.9948 122.779 77.7979C125.257 78.6011 127.272 80.523 128.48 83.2856C126.065 84.2338 123.395 84.3129 120.928 83.5091Z" fill="#87A7C4"/>
<path d="M66.9133 127.01C65.6222 127.67 64.5555 128.697 63.8481 129.962C63.1407 131.227 62.8244 132.674 62.9392 134.119C63.054 135.564 63.5947 136.942 64.493 138.08C65.3912 139.218 66.6067 140.064 67.9857 140.511C69.3646 140.958 70.8452 140.986 72.2401 140.591C73.635 140.197 74.8815 139.397 75.8222 138.294C76.7628 137.191 77.3552 135.834 77.5246 134.395C77.6939 132.955 77.4325 131.497 76.7735 130.206C75.8882 128.476 74.3528 127.169 72.5043 126.569C70.6558 125.97 68.645 126.129 66.9133 127.01ZM68.6205 130.355C69.0226 130.15 69.4766 130.068 69.925 130.121C70.3733 130.175 70.7958 130.36 71.1388 130.653C71.4818 130.947 71.7299 131.336 71.8516 131.77C71.9733 132.205 71.9631 132.666 71.8223 133.095C71.6815 133.524 71.4165 133.902 71.0608 134.18C70.7052 134.458 70.2749 134.624 69.8247 134.658C69.3744 134.691 68.9244 134.59 68.5317 134.367C68.1391 134.144 67.8215 133.81 67.6192 133.406C67.3511 132.868 67.3058 132.246 67.4932 131.675C67.6807 131.103 68.0857 130.629 68.6205 130.355V130.355ZM72.8918 138.723C71.6998 139.334 70.3325 139.511 69.0242 139.224C69.437 137.725 70.2854 136.574 71.4832 135.963C72.6811 135.352 74.1177 135.318 75.567 135.885C75.0314 137.112 74.0857 138.116 72.8918 138.723V138.723Z" fill="#87A7C4"/>
</svg>
