<svg width="335" height="334" viewBox="0 0 335 334" fill="none" xmlns="http://www.w3.org/2000/svg">
<path d="M130.571 266.358C145.116 275.125 155.493 271.486 159.466 264.456C167.148 250.86 192.692 223.058 233.171 213.661C286.783 201.216 275.587 168.171 242.629 150.83C209.672 133.49 185.029 109.496 188.758 83.4072C192.488 57.3182 155.533 48.3245 139.099 98.5109C128.479 130.943 109.447 139.632 97.3107 141.721C85.8725 143.689 73.3604 146.159 67.2589 156.032C59.8552 168.012 62.4387 180.13 93.4366 188.441C137.364 200.219 97.9688 246.707 130.571 266.358Z" fill="#F1F5F8"/>
<path d="M190.318 113.17L190.751 113.42L191.001 112.987L193.376 108.873C196.483 103.492 203.363 101.649 208.744 104.755C214.125 107.862 215.968 114.742 212.862 120.123L210.487 124.237L210.237 124.67L210.67 124.92C229.084 135.551 235.393 159.097 224.762 177.512L201.262 218.215C198.362 223.237 200.083 229.659 205.105 232.558C205.822 232.972 206.068 233.89 205.654 234.607L198.404 247.165C197.99 247.882 197.072 248.128 196.355 247.714L86.3697 184.214C85.6523 183.799 85.4065 182.882 85.8207 182.165L93.0707 169.607C93.4849 168.89 94.4023 168.644 95.1197 169.058L96.4188 169.808C101.441 172.708 107.863 170.987 110.762 165.965L132.262 128.726C143.998 108.398 169.991 101.434 190.318 113.17Z" fill="#B8CBDC" stroke="#87A7C4"/>
<mask id="path-3-inside-1" fill="white">
<path d="M148.706 224.245C146.584 227.92 146.009 232.287 147.107 236.386C148.205 240.485 150.887 243.98 154.562 246.101C158.237 248.223 162.604 248.798 166.703 247.7C170.802 246.602 174.297 243.92 176.418 240.245L162.562 232.245L148.706 224.245Z"/>
</mask>
<path d="M148.706 224.245C146.584 227.92 146.009 232.287 147.107 236.386C148.205 240.485 150.887 243.98 154.562 246.101C158.237 248.223 162.604 248.798 166.703 247.7C170.802 246.602 174.297 243.92 176.418 240.245L162.562 232.245L148.706 224.245Z" fill="#B8CBDC" stroke="#87A7C4" stroke-width="2" mask="url(#path-3-inside-1)"/>
<circle cx="145.112" cy="83.3994" r="6.5" fill="#B8CBDC"/>
<circle cx="250.112" cy="164.399" r="6" fill="#B8CBDC" stroke="#87A7C4"/>
<circle cx="102.112" cy="148.399" r="6" stroke="#87A7C4"/>
</svg>
