<svg width="273" height="272" viewBox="0 0 273 272" fill="none" xmlns="http://www.w3.org/2000/svg">
<path d="M174.455 86.7491L166.041 97.7801C163.872 100.557 153.668 105.362 158.048 109.546C163.378 114.635 169.896 114.854 171.957 112.62L186.701 96.3001C188.916 93.6098 192.031 88.4986 187.409 84.0862C182.074 79.0206 176.506 84.5018 174.455 86.7491Z" fill="#B7755A"/>
<path d="M92.7669 124.569C92.4517 142.265 90.9992 181.295 90.9992 181.295C90.9992 181.295 90.3643 189.334 93.5434 192.952C96.7225 196.57 101.496 198.159 101.496 198.159L93.5343 214.703L141.582 224.871L165.443 190.842L103.273 132.727C103.273 132.727 105.004 123.66 92.7669 124.569Z" fill="#B7755A"/>
<path d="M165.48 74.8641H109.96C109.064 74.8641 108.177 75.0405 107.35 75.3832C106.523 75.7259 105.771 76.2282 105.138 76.8615C104.504 77.4947 104.002 78.2465 103.659 79.0739C103.317 79.9012 103.14 80.788 103.14 81.6836V187.854C103.14 188.75 103.317 189.636 103.659 190.463C104.002 191.291 104.504 192.042 105.138 192.675C105.771 193.308 106.523 193.81 107.35 194.152C108.178 194.494 109.064 194.67 109.96 194.669H165.48C166.374 194.669 167.26 194.493 168.087 194.151C168.914 193.808 169.664 193.306 170.297 192.673C170.929 192.04 171.431 191.289 171.773 190.462C172.115 189.635 172.291 188.749 172.29 187.854V81.6836C172.291 80.7886 172.115 79.9023 171.773 79.0753C171.431 78.2482 170.93 77.4966 170.297 76.8633C169.665 76.2301 168.914 75.7276 168.087 75.3846C167.261 75.0415 166.375 74.8647 165.48 74.8641Z" fill="#221F1F"/>
<path d="M168.033 89.9282H107.402V177.865H168.033V89.9282Z" fill="#B8CBDC"/>
<path d="M137.717 80.6513C137.213 80.6513 136.72 80.8008 136.301 81.0808C135.882 81.3609 135.555 81.759 135.362 82.2247C135.17 82.6904 135.119 83.2029 135.217 83.6973C135.316 84.1917 135.559 84.6458 135.915 85.0023C136.271 85.3588 136.726 85.6015 137.22 85.6998C137.714 85.7982 138.227 85.7477 138.693 85.5548C139.158 85.3619 139.556 85.0352 139.836 84.6161C140.116 84.1969 140.266 83.7041 140.266 83.2001C140.267 82.8652 140.201 82.5335 140.073 82.224C139.945 81.9145 139.758 81.6333 139.521 81.3965C139.284 81.1597 139.003 80.972 138.693 80.8441C138.384 80.7162 138.052 80.6507 137.717 80.6513Z" fill="#E0E0E0"/>
<path d="M142.121 183.552H133.31C132.567 183.552 131.855 183.847 131.33 184.372C130.805 184.897 130.51 185.609 130.51 186.352C130.51 187.094 130.805 187.806 131.33 188.332C131.855 188.857 132.567 189.152 133.31 189.152H142.121C142.863 189.152 143.575 188.857 144.1 188.332C144.626 187.806 144.921 187.094 144.921 186.352C144.921 185.609 144.626 184.897 144.1 184.372C143.575 183.847 142.863 183.552 142.121 183.552Z" fill="#E0E0E0"/>
<path d="M137.717 112.977C133.773 112.977 129.917 114.146 126.638 116.338C123.358 118.529 120.802 121.643 119.293 125.287C117.784 128.931 117.389 132.941 118.158 136.81C118.928 140.678 120.827 144.232 123.616 147.021C126.405 149.81 129.958 151.709 133.827 152.478C137.695 153.248 141.705 152.853 145.349 151.344C148.993 149.834 152.108 147.278 154.299 143.999C156.49 140.719 157.66 136.863 157.66 132.919C157.66 130.3 157.145 127.707 156.143 125.287C155.141 122.867 153.672 120.668 151.82 118.816C149.968 116.964 147.769 115.495 145.35 114.493C142.93 113.491 140.336 112.976 137.717 112.977Z" fill="white"/>
<path d="M141.837 121.253H133.602V144.585H141.837V121.253Z" fill="#E26865"/>
<path d="M149.383 128.799H126.052V137.03H149.383V128.799Z" fill="#E26865"/>
<path opacity="0.1" d="M165.722 74.8641H110.202C109.306 74.8641 108.419 75.0405 107.592 75.3832C106.765 75.7259 106.013 76.2282 105.379 76.8615C104.746 77.4947 104.244 78.2465 103.901 79.0739C103.558 79.9012 103.382 80.788 103.382 81.6836V187.854C103.383 188.939 103.644 190.007 104.145 190.97L171.874 78.774C171.325 77.6059 170.455 76.6181 169.366 75.9258C168.276 75.2335 167.012 74.8653 165.722 74.8641Z" fill="white"/>
<path d="M88.9437 211.739L139.978 238.903L146.848 225.999L95.8089 198.831L88.9437 211.739Z" fill="#D0D2D3"/>
<path d="M95.9078 198.836L89.0391 211.743L114.426 225.253L121.295 212.346L95.9078 198.836Z" fill="#F0F1F1"/>
<path d="M87.7515 207.92L54.4213 272H125.558L143.459 237.592L87.7515 207.92Z" fill="#221F1F"/>
<path d="M87.7515 207.92L54.4213 272H89.9897L115.601 222.761L87.7515 207.92Z" fill="#373636"/>
<path d="M168.727 161.019L166.037 164.409C163.867 167.186 161.3 171.991 165.685 176.179C171.011 181.268 176.579 175.759 178.634 173.526L180.973 170.566C183.188 167.88 186.304 162.769 181.677 158.356C176.355 153.273 170.778 158.781 168.727 161.019Z" fill="#BA785D"/>
<path d="M168.727 139.186L166.041 142.58C163.867 145.357 161.3 150.162 165.685 154.351C171.011 159.434 176.579 153.926 178.639 151.692L180.973 148.732C183.193 146.047 186.304 140.935 181.677 136.523C176.355 131.444 170.783 136.952 168.727 139.186Z" fill="#BA785D"/>
<path d="M168.727 117.183L166.041 120.586C163.872 123.364 161.3 128.173 165.685 132.357C171.016 137.441 176.579 131.937 178.639 129.703L180.973 126.744C183.193 124.053 186.304 118.947 181.677 114.534C176.355 109.437 170.783 114.945 168.727 117.183Z" fill="#BA785D"/>
<path d="M76.4602 139.844H67.5579V165.057H76.4602V139.844Z" fill="#EBEBEB"/>
<path d="M84.6136 148.002H59.3955V156.899H84.6136V148.002Z" fill="#EBEBEB"/>
<path d="M256.321 116.192H247.419V141.406H256.321V116.192Z" fill="#EBEBEB"/>
<path d="M264.475 124.346H239.257V133.243H264.475V124.346Z" fill="#EBEBEB"/>
<path d="M79.1141 93.5641H74.8616V105.604H79.1141V93.5641Z" fill="#EBEBEB"/>
<path d="M83.0103 97.4557H70.97V101.704H83.0103V97.4557Z" fill="#EBEBEB"/>
<path d="M23.7676 134.728H19.5151V146.768H23.7676V134.728Z" fill="#EBEBEB"/>
<path d="M27.6594 138.62H15.619V142.867H27.6594V138.62Z" fill="#EBEBEB"/>
<path d="M49.7303 194.345H45.4778V206.385H49.7303V194.345Z" fill="#EBEBEB"/>
<path d="M53.6265 198.237H41.5862V202.485H53.6265V198.237Z" fill="#EBEBEB"/>
<path d="M105.84 12.7164H101.587V24.7568H105.84V12.7164Z" fill="#EBEBEB"/>
<path d="M109.731 16.608H97.6908V20.856H109.731V16.608Z" fill="#EBEBEB"/>
<path d="M166.69 52.4414H162.438V64.4817H166.69V52.4414Z" fill="#EBEBEB"/>
<path d="M170.582 56.333H158.541V60.581H170.582V56.333Z" fill="#EBEBEB"/>
<path d="M258.861 81.6151H254.608V93.6554H258.861V81.6151Z" fill="#EBEBEB"/>
<path d="M262.753 85.5067H250.712V89.7547H262.753V85.5067Z" fill="#EBEBEB"/>
<path d="M204.3 129.982H200.048V142.022H204.3V129.982Z" fill="#EBEBEB"/>
<path d="M208.192 133.874H196.151V138.122H208.192V133.874Z" fill="#EBEBEB"/>
<path d="M210.996 57.1598H206.744V69.2002H210.996V57.1598Z" fill="#EBEBEB"/>
<path d="M214.888 61.0514H202.848V65.2994H214.888V61.0514Z" fill="#EBEBEB"/>
<path d="M32.6564 46.6633H28.4039V58.7037H32.6564V46.6633Z" fill="#EBEBEB"/>
<path d="M36.5479 50.5549H24.5076V54.8029H36.5479V50.5549Z" fill="#EBEBEB"/>
<path d="M36.9089 93.7422H30.5325V111.803H36.9089V93.7422Z" fill="#EBEBEB"/>
<path d="M42.7463 99.5843H24.6858V105.956H42.7463V99.5843Z" fill="#EBEBEB"/>
<path d="M21.6438 176.285H15.2673V194.345H21.6438V176.285Z" fill="#EBEBEB"/>
<path d="M27.4857 182.127H9.42517V188.498H27.4857V182.127Z" fill="#EBEBEB"/>
<path d="M119.597 46.0923H113.221V64.1529H119.597V46.0923Z" fill="#EBEBEB"/>
<path d="M125.439 51.9344H107.379V58.3063H125.439V51.9344Z" fill="#EBEBEB"/>
<path d="M215.244 88.9553H208.868V107.016H215.244V88.9553Z" fill="#EBEBEB"/>
<path d="M221.086 94.7974H203.026V101.169H221.086V94.7974Z" fill="#EBEBEB"/>
<path d="M207.488 181.939H201.112V200H207.488V181.939Z" fill="#EBEBEB"/>
<path d="M213.33 187.777H195.27V194.149H213.33V187.777Z" fill="#EBEBEB"/>
<path d="M70.9699 58.7037H62.0675V83.9172H70.9699V58.7037Z" fill="#EBEBEB"/>
<path d="M79.1232 66.8569H53.9052V75.7548H79.1232V66.8569Z" fill="#EBEBEB"/>
<path d="M148.355 18.6955C143.705 18.6406 139.636 21.3858 137.475 25.4967C135.452 21.4543 131.537 18.6955 127.029 18.6452C120.374 18.5676 114.92 24.3959 114.847 31.6722C114.792 34.7425 115.756 37.7445 117.588 40.2092C120.42 44.9093 137.493 60.8824 137.493 60.8824C137.493 60.8824 154.636 45.3204 158.135 40.2868C159.706 37.9463 160.553 35.1946 160.569 32.3756C160.67 24.8983 155.189 18.7777 148.355 18.6955Z" fill="#B8CBDC"/>
<path d="M127.024 18.6407C120.369 18.563 114.915 24.3914 114.842 31.6676C114.787 34.738 115.751 37.74 117.583 40.2046C120.415 44.9047 137.489 60.8779 137.489 60.8779L137.448 25.4967C135.452 21.468 131.546 18.6955 127.024 18.6407Z" fill="#B8CBDC"/>
<path d="M151.694 43.3243H143.463L141.746 38.7521L138.887 51.6192L136.027 30.745L134.314 43.6121L131.976 34.9427L130.596 43.6121H123.914" stroke="white" stroke-width="3.13" stroke-linecap="round" stroke-linejoin="round"/>
<path d="M55.8738 143.425H34.5839C33.1268 143.425 31.9484 144.886 31.9484 145.891V156.548C31.9484 157.557 33.1268 158.375 34.5839 158.375H55.8738C57.3263 158.375 58.5048 157.562 58.5048 156.548V145.891C58.5093 144.886 57.3263 143.425 55.8738 143.425ZM55.8373 154.748C55.8373 155.757 54.6542 156.575 53.2017 156.575H37.2514C35.7989 156.575 34.6204 155.757 34.6204 154.748V147.691C34.6204 146.681 35.7989 145.864 37.2514 145.864H53.2017C54.6542 145.864 55.8373 146.677 55.8373 147.691V154.748Z" fill="#E0E0E0"/>
<path d="M72.0022 151.948H18.4509V185.58H72.0022V151.948Z" fill="#B8CBDC"/>
<path d="M45.2266 157.128C42.9487 157.127 40.7218 157.802 38.8274 159.066C36.9331 160.331 35.4564 162.13 34.5843 164.234C33.7122 166.338 33.4838 168.654 33.928 170.888C34.3721 173.122 35.4689 175.175 37.0796 176.785C38.6903 178.396 40.7425 179.493 42.9766 179.937C45.2108 180.381 47.5265 180.153 49.6307 179.281C51.735 178.408 53.5334 176.932 54.7984 175.037C56.0633 173.143 56.738 170.916 56.7371 168.638C56.7371 165.585 55.5244 162.658 53.3657 160.499C51.2071 158.34 48.2793 157.128 45.2266 157.128V157.128Z" stroke="white" stroke-width="1.52" stroke-miterlimit="10"/>
<path d="M47.6064 161.887H42.8514V175.353H47.6064V161.887Z" fill="white"/>
<path d="M51.9638 166.24H38.4938V170.995H51.9638V166.24Z" fill="white"/>
<path d="M244.925 64.4909C243.787 62.5472 241.924 61.1346 239.745 60.5634C237.566 59.9921 235.25 60.309 233.305 61.4443L209.507 75.3665C207.564 76.5046 206.151 78.3675 205.58 80.5462C205.008 82.725 205.325 85.0413 206.461 86.9867L206.958 87.8499C208.096 89.7938 209.96 91.2062 212.139 91.7767C214.318 92.3471 216.634 92.0289 218.579 90.892L242.376 76.9926C244.322 75.8562 245.736 73.9935 246.308 71.8144C246.88 69.6352 246.563 67.318 245.427 65.3724L244.925 64.4909Z" fill="#F0F1F1"/>
<path d="M244.925 64.4909C243.787 62.5472 241.924 61.1346 239.745 60.5634C237.567 59.9921 235.25 60.309 233.305 61.4443L221.406 68.3917L230.478 83.9217L242.353 76.9743C244.299 75.8379 245.713 73.9752 246.285 71.7961C246.858 69.617 246.541 67.2998 245.405 65.3542L244.925 64.4909Z" fill="#B8CBDC"/>
<path d="M216.455 87.2424C214.75 88.237 212.753 88.6078 210.806 88.2911C208.858 87.9744 207.081 86.99 205.78 85.5067C205.96 86.0175 206.188 86.5099 206.461 86.9775L206.958 87.8408C208.096 89.7847 209.96 91.1971 212.139 91.7675C214.318 92.338 216.634 92.0198 218.579 90.8829L230.477 83.9309L228.349 80.2767L216.455 87.2424Z" fill="#D0D2D3"/>
<path d="M244.477 63.8057C244.637 64.025 244.783 64.2625 244.934 64.4909C244.783 64.2534 244.637 64.025 244.477 63.8057Z" fill="#B8CBDC"/>
<path d="M244.925 64.4909C244.783 64.2534 244.637 64.0341 244.468 63.8057C244.312 63.5884 244.144 63.3795 243.966 63.18C244.619 65.0413 244.605 67.0722 243.925 68.9241C243.245 70.776 241.942 72.3335 240.238 73.3293L228.34 80.2767L230.468 83.9309L242.344 76.9835C244.29 75.847 245.704 73.9844 246.276 71.8052C246.848 69.6261 246.532 67.3089 245.395 65.3633L244.925 64.4909Z" fill="#B8CBDC"/>
<path opacity="0.4" d="M237.904 64.7375C237.626 64.2624 237.171 63.9171 236.638 63.7775C236.105 63.6379 235.539 63.7154 235.063 63.993L210.855 78.1528C210.38 78.4311 210.034 78.8866 209.895 79.4193C209.755 79.952 209.833 80.5183 210.11 80.9939L210.234 81.204C210.511 81.6788 210.966 82.0241 211.498 82.1637C212.03 82.3033 212.595 82.2259 213.07 81.9485L237.279 67.7887C237.755 67.5112 238.101 67.056 238.241 66.5233C238.382 65.9905 238.305 65.4238 238.028 64.9477L237.904 64.7375Z" fill="white"/>
<path d="M225.567 80.7061C223.731 82.5448 222.7 85.0369 222.7 87.6353C222.7 90.2336 223.731 92.7257 225.567 94.5644L239.43 80.7061C238.52 79.7958 237.439 79.0737 236.25 78.5811C235.061 78.0884 233.786 77.8349 232.499 77.8349C231.211 77.8349 229.937 78.0884 228.747 78.5811C227.558 79.0737 226.477 79.7958 225.567 80.7061Z" fill="white"/>
<path d="M225.567 94.5507C226.472 95.4854 227.553 96.2308 228.749 96.7434C229.944 97.256 231.229 97.5255 232.53 97.5363C233.831 97.5471 235.121 97.299 236.324 96.8063C237.528 96.3137 238.622 95.5864 239.542 94.6668C240.461 93.7472 241.189 92.6538 241.682 91.4502C242.175 90.2466 242.424 88.9569 242.413 87.6562C242.403 86.3556 242.134 85.07 241.622 83.8745C241.11 82.6789 240.365 81.5972 239.43 80.6924L225.567 94.5507Z" fill="#E6E6E7"/>
<path d="M226.389 81.5283C224.77 83.1481 223.86 85.3448 223.86 87.6353C223.86 89.9257 224.77 92.1224 226.389 93.7422L238.603 81.5283C236.984 79.9088 234.787 78.9991 232.496 78.9991C230.206 78.9991 228.009 79.9088 226.389 81.5283Z" fill="#F0F1F1"/>
<path d="M226.394 93.7422C228.021 95.3235 230.206 96.2008 232.475 96.1845C234.744 96.1681 236.916 95.2594 238.52 93.6548C240.125 92.0502 241.034 89.8786 241.05 87.6095C241.066 85.3403 240.189 83.1558 238.608 81.5283L226.394 93.7422Z" fill="#F0F1F1"/>
<path d="M225.663 92.9109L225.567 94.5644L239.43 80.7061L237.777 80.7975L225.663 92.9109Z" fill="#E6E6E7"/>
<path d="M227.225 94.4731L239.339 82.3596L239.43 80.7061L225.567 94.5644L227.225 94.4731Z" fill="white"/>
<path d="M252.165 138.213H209.27V194.555H252.165V138.213Z" fill="#E0E0E0"/>
<path d="M249.388 141.301H212.042V191.18H249.388V141.301Z" fill="white"/>
<path d="M238.877 136.902H234.141V134.618C234.141 134.255 233.996 133.906 233.739 133.649C233.482 133.392 233.134 133.248 232.77 133.248H228.696C228.333 133.248 227.984 133.392 227.727 133.649C227.47 133.906 227.326 134.255 227.326 134.618V136.902H222.557C222.194 136.902 221.845 137.046 221.588 137.303C221.331 137.56 221.187 137.909 221.187 138.272V141.369C221.187 141.733 221.331 142.081 221.588 142.338C221.845 142.595 222.194 142.74 222.557 142.74H238.877C239.241 142.74 239.589 142.595 239.846 142.338C240.103 142.081 240.248 141.733 240.248 141.369V138.272C240.248 137.909 240.103 137.56 239.846 137.303C239.589 137.046 239.241 136.902 238.877 136.902ZM230.72 137.236C230.448 137.236 230.184 137.155 229.958 137.005C229.733 136.854 229.557 136.64 229.454 136.39C229.35 136.139 229.323 135.864 229.376 135.598C229.428 135.332 229.559 135.088 229.751 134.896C229.942 134.705 230.186 134.574 230.452 134.521C230.718 134.468 230.994 134.496 231.244 134.599C231.494 134.703 231.708 134.879 231.859 135.104C232.009 135.329 232.09 135.594 232.09 135.865C232.09 136.046 232.054 136.225 231.985 136.392C231.915 136.559 231.813 136.71 231.685 136.837C231.557 136.965 231.405 137.066 231.238 137.134C231.07 137.202 230.891 137.237 230.71 137.236H230.72Z" fill="#A6A8AB"/>
<path d="M246.574 149.235H225.942V150.194H246.574V149.235Z" fill="#E0E0E0"/>
<path d="M246.574 151.674H225.942V152.633H246.574V151.674Z" fill="#E0E0E0"/>
<path d="M246.574 154.113H225.942V155.072H246.574V154.113Z" fill="#E0E0E0"/>
<path d="M246.574 156.552H225.942V157.511H246.574V156.552Z" fill="#E0E0E0"/>
<path d="M246.779 161.906H214.751V162.865H246.779V161.906Z" fill="#E0E0E0"/>
<path d="M246.779 163.993H214.751V164.952H246.779V163.993Z" fill="#E0E0E0"/>
<path d="M246.779 166.08H214.751V167.04H246.779V166.08Z" fill="#E0E0E0"/>
<path d="M246.779 168.168H214.751V169.127H246.779V168.168Z" fill="#E0E0E0"/>
<path d="M246.779 170.255H214.751V171.214H246.779V170.255Z" fill="#E0E0E0"/>
<path d="M246.779 172.343H214.751V173.302H246.779V172.343Z" fill="#E0E0E0"/>
<path d="M246.779 177.445H214.751V178.404H246.779V177.445Z" fill="#E0E0E0"/>
<path d="M246.779 179.528H214.751V180.487H246.779V179.528Z" fill="#E0E0E0"/>
<path d="M246.779 181.615H214.751V182.574H246.779V181.615Z" fill="#E0E0E0"/>
<path d="M246.779 183.702H214.751V184.662H246.779V183.702Z" fill="#E0E0E0"/>
<path d="M227.294 134.618V136.902H222.557C222.194 136.902 221.845 137.046 221.588 137.303C221.331 137.56 221.187 137.909 221.187 138.272V141.369C221.187 141.733 221.331 142.081 221.588 142.338C221.845 142.595 222.194 142.74 222.557 142.74H230.71V137.236C230.39 137.183 230.099 137.018 229.889 136.77C229.678 136.522 229.563 136.208 229.563 135.884C229.563 135.559 229.678 135.245 229.889 134.997C230.099 134.749 230.39 134.584 230.71 134.531V133.23H228.673C228.491 133.228 228.31 133.264 228.142 133.333C227.973 133.403 227.82 133.505 227.692 133.634C227.563 133.764 227.462 133.917 227.394 134.086C227.325 134.255 227.291 134.436 227.294 134.618Z" fill="#D0D2D3"/>
<path d="M219.291 148.152C218.352 148.152 217.433 148.431 216.652 148.953C215.871 149.475 215.262 150.217 214.902 151.085C214.543 151.953 214.449 152.908 214.632 153.829C214.815 154.751 215.268 155.597 215.932 156.262C216.597 156.926 217.443 157.378 218.365 157.562C219.286 157.745 220.241 157.651 221.109 157.291C221.977 156.932 222.719 156.323 223.241 155.542C223.763 154.761 224.042 153.842 224.042 152.903C224.042 151.643 223.541 150.435 222.65 149.544C221.759 148.653 220.551 148.152 219.291 148.152Z" fill="#B8CBDC"/>
<path d="M220.273 150.126H218.314V155.68H220.273V150.126Z" fill="white"/>
<path d="M222.073 151.921H216.519V153.88H222.073V151.921Z" fill="white"/>
<path d="M159.592 174.718C158.427 171.023 155.422 164.605 148.629 166.679C143.226 168.332 144.788 176.385 145.633 179.655L170.847 259.475C172.13 263.18 172.715 269.214 179.274 267.647C187.244 265.747 185.463 257.219 184.627 253.944L159.592 174.718Z" fill="#BA785D"/>
<path d="M189.067 212.547C187.893 208.852 185.006 202.859 178.105 204.508C170.134 206.417 171.915 214.945 172.76 218.211L186.299 260.357C187.582 264.066 190.515 269.369 197.074 267.807C205.045 265.902 203.268 257.379 202.427 254.104L189.067 212.547Z" fill="#BA785D"/>
<path d="M204.775 211.629C203.606 207.934 200.719 201.937 193.813 203.59C185.842 205.495 187.624 214.027 188.469 217.293L202.012 259.443C203.295 263.148 206.232 268.455 212.787 266.893C220.762 264.993 218.981 256.465 218.14 253.19L204.775 211.629Z" fill="#BA785D"/>
<path d="M219.83 212.885C218.661 209.195 215.774 203.197 208.868 204.851C200.897 206.755 202.679 215.283 203.524 218.554L213.737 249.911C215.016 253.62 217.953 258.927 224.512 257.361C232.483 255.46 230.701 246.933 229.861 243.658L219.83 212.885Z" fill="#BA785D"/>
<path d="M233.707 256.127C231.798 249.961 227.678 237.204 227.678 237.204L175.565 253.136C175.565 253.136 157.39 237.793 149.895 237.414C142.399 237.035 134.177 240.204 135.383 241.981C136.589 243.758 167.558 267.738 167.558 267.738C167.558 267.738 168.992 269.565 171.294 271.991H234.04L233.67 270.79C233.67 270.79 235.616 262.294 233.707 256.127Z" fill="#BA785D"/>
</svg>
